<?xml version="1.0" encoding="UTF-8"?>
<svg clip-rule="evenodd" fill-rule="evenodd" stroke-linejoin="round" stroke-miterlimit="2" version="1.1" viewBox="0 0 32 32" xml:space="preserve" xmlns="http://www.w3.org/2000/svg"><path d="m14 1.135v29.774c0 0.614-0.499 1.113-1.113 1.113h-8.774c-0.614 0-1.113-0.499-1.113-1.113v-29.774c0-0.614 0.499-1.113 1.113-1.113h8.774c0.614 0 1.113 0.499 1.113 1.113z"/><path d="m29 1.113v29.774c0 0.614-0.499 1.113-1.113 1.113h-8.774c-0.614 0-1.113-0.499-1.113-1.113v-29.774c0-0.614 0.499-1.113 1.113-1.113h8.774c0.614 0 1.113 0.499 1.113 1.113z"/></svg>
