<?xml version="1.0" encoding="UTF-8" standalone="no"?><!DOCTYPE svg PUBLIC "-//W3C//DTD SVG 1.1//EN" "http://www.w3.org/Graphics/SVG/1.1/DTD/svg11.dtd"><svg width="100%" height="100%" viewBox="0 0 8 8" version="1.1" xmlns="http://www.w3.org/2000/svg" xmlns:xlink="http://www.w3.org/1999/xlink" xml:space="preserve" xmlns:serif="http://www.serif.com/" style="fill-rule:evenodd;clip-rule:evenodd;stroke-linejoin:round;stroke-miterlimit:2;"><g id="Layer1"><g><circle cx="3.84" cy="3.84" r="0.309"/><path d="M3.84,0.12c2.053,0 3.72,1.667 3.72,3.72c-0,2.053 -1.667,3.72 -3.72,3.72c-2.053,-0 -3.72,-1.667 -3.72,-3.72c0,-2.053 1.667,-3.72 3.72,-3.72Zm-1.832,1.955c0.464,-0.568 1.097,-0.803 1.849,-0.756c0.093,0.005 0.173,-0.065 0.179,-0.158c0.006,-0.093 -0.065,-0.173 -0.158,-0.179c-0.868,-0.054 -1.595,0.224 -2.131,0.88c-0.059,0.072 -0.048,0.178 0.024,0.237c0.072,0.059 0.178,0.048 0.237,-0.024Zm3.708,3.543c-0.464,0.568 -1.097,0.803 -1.85,0.756c-0.092,-0.005 -0.172,0.065 -0.178,0.158c-0.006,0.093 0.065,0.173 0.157,0.179c0.869,0.054 1.596,-0.224 2.132,-0.88c0.059,-0.072 0.048,-0.178 -0.024,-0.237c-0.072,-0.059 -0.178,-0.048 -0.237,0.024Zm-0.659,-0.623c-0.305,0.373 -0.721,0.526 -1.214,0.496c-0.093,-0.006 -0.173,0.064 -0.179,0.157c-0.005,0.093 0.065,0.173 0.158,0.179c0.609,0.038 1.119,-0.158 1.495,-0.619c0.059,-0.072 0.049,-0.178 -0.023,-0.237c-0.072,-0.058 -0.179,-0.048 -0.237,0.024Zm-2.349,-2.289c0.305,-0.373 0.72,-0.526 1.214,-0.496c0.092,0.006 0.173,-0.065 0.178,-0.157c0.006,-0.093 -0.065,-0.173 -0.157,-0.179c-0.61,-0.038 -1.12,0.158 -1.496,0.618c-0.059,0.072 -0.048,0.179 0.024,0.237c0.072,0.059 0.178,0.049 0.237,-0.023Zm1.132,-0.126c-0.696,-0 -1.26,0.564 -1.26,1.26c-0,0.696 0.564,1.26 1.26,1.26c0.696,0 1.26,-0.564 1.26,-1.26c0,-0.696 -0.564,-1.26 -1.26,-1.26Z"/></g></g></svg>