<?xml version="1.0" encoding="UTF-8" standalone="no"?><!DOCTYPE svg PUBLIC "-//W3C//DTD SVG 1.1//EN" "http://www.w3.org/Graphics/SVG/1.1/DTD/svg11.dtd"><svg width="100%" height="100%" viewBox="0 0 24 24" version="1.1" xmlns="http://www.w3.org/2000/svg" xmlns:xlink="http://www.w3.org/1999/xlink" xml:space="preserve" xmlns:serif="http://www.serif.com/" style="fill-rule:evenodd;clip-rule:evenodd;stroke-linejoin:round;stroke-miterlimit:2;"><g id="Layer1"><path d="M12.183,2.315l0,19.37c0,1.208 -0.787,2.042 -2.209,0.728c-1.028,-0.95 -5.014,-5.014 -5.014,-5.014l-2.824,-0c-1.642,-0 -2.136,-0.494 -2.136,-2.136l0,-6.526c0,-1.642 0.494,-2.136 2.136,-2.136l2.824,0c-0,0 3.986,-4.064 5.014,-5.014c1.422,-1.314 2.209,-0.48 2.209,0.728Z"/></g><g id="Layer2"><path d="M14.573,7.812c-0.432,-0.344 -0.503,-0.973 -0.16,-1.405c0.344,-0.432 0.974,-0.503 1.405,-0.16c1.448,1.153 2.465,3.289 2.465,5.753c-0,2.464 -1.017,4.6 -2.465,5.753c-0.431,0.343 -1.061,0.272 -1.405,-0.16c-0.343,-0.432 -0.272,-1.061 0.16,-1.405c1.046,-0.833 1.71,-2.407 1.71,-4.188c-0,-1.781 -0.664,-3.355 -1.71,-4.188Z"/><path d="M18.753,4.717c-0.444,-0.329 -0.537,-0.955 -0.209,-1.399c0.328,-0.444 0.955,-0.537 1.399,-0.209c2.404,1.78 4.057,5.088 4.057,8.891c0,3.803 -1.653,7.111 -4.057,8.891c-0.444,0.328 -1.071,0.235 -1.399,-0.209c-0.328,-0.444 -0.235,-1.07 0.209,-1.399c1.961,-1.452 3.247,-4.18 3.247,-7.283c-0,-3.103 -1.286,-5.831 -3.247,-7.283Z"/></g></svg>